<?xml version="1.0" standalone="no"?>
<!DOCTYPE svg PUBLIC "-//W3C//DTD SVG 20010904//EN"
 "http://www.w3.org/TR/2001/REC-SVG-20010904/DTD/svg10.dtd">
<svg version="1.0" xmlns="http://www.w3.org/2000/svg"
 width="720.000000pt" height="720.000000pt" viewBox="0 0 720.000000 720.000000"
 preserveAspectRatio="xMidYMid meet">
<metadata>
Created by potrace 1.11, written by Peter Selinger 2001-2013
</metadata>
<g transform="translate(0.000000,720.000000) scale(0.100000,-0.100000)"
fill="#000000" stroke="none">
<path d="M3405 4995 c-105 -31 -126 -71 -127 -241 0 -195 52 -245 252 -244
134 0 193 23 225 86 17 33 20 59 20 160 0 163 -24 211 -119 238 -61 18 -195
18 -251 1z"/>
<path d="M727 4334 c-1 -1 -45 -4 -97 -8 -173 -11 -306 -61 -393 -148 -61 -61
-83 -103 -101 -191 -15 -71 -12 -213 5 -264 6 -19 12 -40 13 -46 5 -36 62
-131 104 -173 78 -79 229 -147 407 -184 141 -28 158 -33 183 -55 25 -22 26
-23 9 -48 -23 -35 -84 -50 -179 -45 -71 4 -89 10 -202 66 -198 98 -246 95
-321 -18 -101 -151 -108 -246 -23 -298 258 -155 505 -193 818 -126 199 43 301
125 355 283 20 61 23 86 21 193 -2 136 -20 205 -73 275 -51 68 -73 83 -228
154 -33 15 -167 48 -220 54 -78 10 -164 33 -190 52 -31 23 -49 71 -34 89 31
37 210 48 301 19 29 -10 72 -26 95 -36 24 -11 62 -22 86 -25 41 -6 48 -3 86
31 51 47 115 170 115 225 0 44 -24 83 -64 105 -64 36 -166 73 -265 96 -42 10
-202 27 -208 23z"/>
<path d="M6298 4325 c-1 -2 -23 -6 -48 -10 -71 -10 -178 -51 -236 -90 -79 -52
-137 -141 -161 -245 -5 -20 -4 -191 0 -210 2 -8 7 -33 12 -55 8 -43 53 -142
76 -169 41 -49 87 -89 133 -114 87 -49 199 -90 291 -108 11 -2 47 -9 79 -15
130 -23 174 -61 122 -105 -31 -27 -96 -38 -182 -31 -53 4 -87 16 -187 66 -188
93 -246 93 -310 -3 -53 -80 -86 -150 -90 -192 -5 -45 20 -102 53 -122 48 -29
178 -91 225 -107 252 -86 633 -54 813 68 112 75 176 239 165 420 -8 125 -47
221 -119 291 -71 69 -222 129 -404 160 -134 23 -165 33 -200 63 -25 20 -30 32
-28 57 3 26 9 33 43 44 22 8 78 14 125 14 84 0 108 -6 270 -68 65 -25 89 -19
140 34 50 52 97 138 106 193 8 46 -8 82 -50 114 -36 27 -218 97 -291 110 -40
8 -340 16 -347 10z"/>
<path d="M1760 4300 c-114 -10 -165 -44 -189 -126 -4 -16 -7 -452 -7 -969 l1
-940 23 -42 c12 -24 35 -49 51 -57 69 -36 252 -40 326 -7 48 21 73 65 84 145
3 28 6 185 5 349 0 163 2 297 5 297 3 0 16 -11 30 -24 114 -108 365 -125 539
-37 204 104 364 316 406 538 47 250 -36 499 -229 682 -129 123 -253 181 -396
187 -136 5 -252 -32 -320 -102 l-34 -35 -20 42 c-11 23 -31 50 -45 61 -34 25
-151 44 -230 38z m650 -512 c48 -21 99 -74 123 -128 84 -189 -101 -389 -304
-329 -119 36 -187 179 -148 310 16 52 82 127 133 150 49 21 143 20 196 -3z"/>
<path d="M4885 4302 c-103 -6 -208 -54 -287 -131 -45 -42 -48 -44 -48 -21 0
13 -9 42 -20 65 -31 65 -75 80 -230 80 -148 0 -183 -12 -221 -78 l-24 -42 0
-625 0 -625 23 -43 c36 -67 88 -87 227 -86 144 0 191 19 226 90 23 48 23 54
25 369 0 176 4 338 8 360 10 58 65 128 121 155 66 32 161 35 229 9 63 -25 89
-49 118 -108 22 -44 23 -57 25 -356 2 -396 6 -427 54 -471 37 -33 95 -48 196
-50 147 -2 215 30 244 116 14 39 18 624 6 745 -33 321 -271 594 -555 638 -42
7 -95 11 -117 9z"/>
<path d="M3420 4290 c-63 -12 -100 -38 -122 -88 -20 -45 -21 -63 -21 -637 0
-324 3 -608 7 -630 20 -106 72 -137 236 -142 104 -2 120 0 166 21 93 43 89 11
92 691 2 325 0 615 -3 645 -13 103 -101 155 -257 149 -35 -2 -79 -6 -98 -9z"/>
</g>
</svg>
